<svg xmlns="http://www.w3.org/2000/svg" width="154" height="38" fill="none"><g fill="#fff" clip-path="url(#a)"><path d="M25.11 19.025a5.688 5.688 0 0 0 2.042-4.372 5.688 5.688 0 0 0-2.043-4.372c.143-.07.28-.144.412-.226a5.41 5.41 0 1 1 0 9.196 4.486 4.486 0 0 0-.412-.226z"/><path d="M23.607 15.505a5.688 5.688 0 0 0-.418-4.808 5.688 5.688 0 0 0-3.955-2.765c.09-.131.171-.265.244-.401a5.41 5.41 0 1 1 4.598 7.964 4.46 4.46 0 0 0-.47.01z"/><path d="M20.545 13.207a5.688 5.688 0 0 0-2.765-3.955 5.688 5.688 0 0 0-4.808-.417c.012-.158.015-.315.01-.47a5.41 5.41 0 1 1 7.964 4.598c-.136.074-.27.155-.401.244z"/><path d="M16.744 12.749a5.688 5.688 0 0 0-4.372-2.043A5.688 5.688 0 0 0 8 12.75a4.47 4.47 0 0 0-.226-.412 5.41 5.41 0 1 1 9.196 0 4.438 4.438 0 0 0-.226.412z"/><path d="M13.223 14.252a5.688 5.688 0 0 0-4.808.417 5.688 5.688 0 0 0-2.765 3.955 4.458 4.458 0 0 0-.401-.244 5.41 5.41 0 1 1 7.964-4.598c-.005.154-.002.311.01.47z"/><path d="M10.925 17.314a5.688 5.688 0 0 0-3.955 2.765 5.688 5.688 0 0 0-.417 4.807 4.463 4.463 0 0 0-.47-.01 5.41 5.41 0 1 1 4.598-7.964c.073.136.154.27.244.402z"/><path d="M10.465 21.114a5.688 5.688 0 0 0-2.043 4.372c0 1.756.794 3.327 2.043 4.372-.143.07-.28.145-.412.226a5.41 5.41 0 1 1 0-9.196c.131.082.269.157.412.227z"/><path d="M11.967 24.636a5.687 5.687 0 0 0 .417 4.807 5.688 5.688 0 0 0 3.955 2.765c-.089.132-.17.266-.243.402a5.41 5.41 0 1 1-4.598-7.964c.154.005.31.001.47-.01z"/><path d="M15.03 26.934a5.688 5.688 0 0 0 2.764 3.955 5.688 5.688 0 0 0 4.808.417 4.463 4.463 0 0 0-.01.47 5.41 5.41 0 1 1-7.964-4.598c.136-.073.27-.155.401-.244z"/><path d="M18.83 27.394a5.688 5.688 0 0 0 4.372 2.042 5.688 5.688 0 0 0 4.372-2.042c.07.143.145.28.226.412a5.41 5.41 0 1 1-9.196 0c.082-.132.157-.27.226-.412z"/><path d="M22.351 25.891a5.687 5.687 0 0 0 4.808-.417 5.688 5.688 0 0 0 2.765-3.955c.131.09.265.171.402.244a5.41 5.41 0 1 1-7.964 4.598 4.436 4.436 0 0 0-.01-.47z"/><path d="m28.608 20.059-.003.005a5.688 5.688 0 0 1-3.955 2.765c.089.132.17.266.244.402a5.41 5.41 0 1 0 8.477-6.498 5.413 5.413 0 0 1-4.763 3.326zM47.76 9.841V26h-3.58V9.841h3.58zM44.748 26l.066-3.166h9.28V26h-9.346zm9.907-5.481c0-1.15.24-2.154.72-3.013a5.05 5.05 0 0 1 2.03-2.031c.874-.48 1.893-.72 3.058-.72 1.165 0 2.176.24 3.035.72a5.05 5.05 0 0 1 2.031 2.03c.48.86.72 1.864.72 3.014 0 1.15-.24 2.155-.72 3.014a5.088 5.088 0 0 1-2.03 2.008c-.86.48-1.871.721-3.036.721s-2.184-.24-3.057-.72a5.088 5.088 0 0 1-2.03-2.01c-.481-.858-.721-1.863-.721-3.013zm3.384-.022c0 .553.102 1.041.306 1.463.204.408.487.728.851.961a2.42 2.42 0 0 0 1.267.328c.48 0 .902-.11 1.266-.328.364-.233.641-.553.83-.96.204-.423.306-.91.306-1.464 0-.553-.102-1.033-.306-1.441a2.091 2.091 0 0 0-.83-.939 2.298 2.298 0 0 0-1.266-.35 2.3 2.3 0 0 0-1.267.35 2.225 2.225 0 0 0-.851.939c-.204.408-.306.888-.306 1.441zm8.97-.153c0-1.12.226-2.103.677-2.948a4.934 4.934 0 0 1 1.856-1.965c.786-.48 1.689-.72 2.708-.72.859 0 1.616.174 2.27.524.67.349 1.122.808 1.355 1.375l-.328.219.262-1.747h3.035v10.22c0 1.28-.247 2.387-.742 3.318a5.195 5.195 0 0 1-2.118 2.184c-.903.51-1.98.764-3.232.764-1.048 0-1.994-.21-2.839-.633a5.24 5.24 0 0 1-2.03-1.747c-.51-.757-.816-1.63-.918-2.62h3.407c.029.626.276 1.106.742 1.441.48.335 1.092.502 1.835.502.83 0 1.47-.233 1.921-.699.451-.45.677-1.055.677-1.812v-2.315l.306.284c-.233.568-.684 1.026-1.354 1.376-.67.35-1.441.524-2.315.524-1.004 0-1.9-.233-2.686-.699a5.021 5.021 0 0 1-1.834-1.943c-.437-.83-.655-1.79-.655-2.883zm3.406-.087c0 .524.11.99.328 1.397.218.408.51.728.873.961a2.29 2.29 0 0 0 1.202.328c.524 0 .982-.11 1.375-.328.408-.233.72-.553.94-.96.232-.408.349-.874.349-1.398 0-.539-.117-.997-.35-1.376a2.427 2.427 0 0 0-.96-.917c-.394-.218-.852-.327-1.376-.327-.437 0-.837.109-1.201.327a2.408 2.408 0 0 0-.874.917c-.204.393-.306.852-.306 1.376zm9.628.262c0-1.15.24-2.154.72-3.013a5.05 5.05 0 0 1 2.031-2.031c.874-.48 1.893-.72 3.057-.72 1.165 0 2.177.24 3.036.72a5.05 5.05 0 0 1 2.03 2.03c.48.86.72 1.864.72 3.014 0 1.15-.24 2.155-.72 3.014a5.088 5.088 0 0 1-2.03 2.008c-.86.48-1.871.721-3.036.721-1.164 0-2.183-.24-3.057-.72a5.088 5.088 0 0 1-2.03-2.01c-.481-.858-.721-1.863-.721-3.013zm3.384-.022c0 .553.102 1.041.306 1.463.204.408.488.728.852.961.364.218.786.328 1.266.328s.903-.11 1.267-.328c.364-.233.64-.553.83-.96.203-.423.305-.91.305-1.464 0-.553-.102-1.033-.305-1.441a2.091 2.091 0 0 0-.83-.939 2.298 2.298 0 0 0-1.267-.35c-.48 0-.902.117-1.266.35a2.225 2.225 0 0 0-.852.939c-.204.408-.306.888-.306 1.441zM93.051 26V15.082h3.385V26h-3.385zm1.704-12.621c-.539 0-.998-.182-1.376-.546a1.912 1.912 0 0 1-.546-1.376c0-.539.182-.99.546-1.354a1.912 1.912 0 0 1 1.376-.546c.524 0 .968.182 1.332.546.378.364.567.815.567 1.354 0 .538-.189.997-.567 1.376a1.812 1.812 0 0 1-1.332.546zm3.87 17.862V15.08h3.079l.174 1.333c.306-.51.794-.917 1.463-1.223a5.147 5.147 0 0 1 2.162-.459c1.019 0 1.907.226 2.664.677.757.452 1.354 1.1 1.791 1.944.436.83.669 1.834.699 3.013.029 1.15-.161 2.177-.568 3.08-.408.887-.997 1.586-1.769 2.095-.772.51-1.703.765-2.795.765a5.65 5.65 0 0 1-2.118-.393c-.655-.262-1.143-.597-1.463-1.005v6.333h-3.32zm3.384-10.7c0 .538.109 1.019.328 1.441.233.408.546.728.939.96.407.22.873.328 1.397.328.539 0 .998-.116 1.376-.349.393-.233.692-.553.895-.96.219-.408.328-.881.328-1.42 0-.539-.109-1.012-.328-1.42a2.275 2.275 0 0 0-.895-.96c-.378-.233-.837-.35-1.376-.35-.524 0-.99.117-1.397.35a2.427 2.427 0 0 0-.939.939c-.219.407-.328.888-.328 1.44zm9.224 2.009h3.036c0 .378.123.677.371.895.262.218.64.328 1.135.328.291 0 .532-.037.721-.11a.972.972 0 0 0 .458-.305.749.749 0 0 0 .175-.48c0-.19-.065-.35-.196-.481-.117-.131-.321-.233-.612-.306l-1.921-.502c-1.078-.291-1.842-.72-2.293-1.288a3.034 3.034 0 0 1-.677-1.944c0-.728.182-1.36.546-1.9a3.628 3.628 0 0 1 1.528-1.266c.641-.306 1.361-.459 2.162-.459 1.208 0 2.198.335 2.97 1.005.786.655 1.201 1.55 1.245 2.686h-3.036c.015-.379-.094-.677-.327-.896-.233-.233-.539-.349-.917-.349-.335 0-.612.087-.83.262-.204.16-.306.386-.306.677 0 .277.102.48.306.611.204.117.48.219.83.306l1.943.48c.903.219 1.587.59 2.053 1.114.466.524.698 1.194.698 2.01 0 1.12-.414 2.008-1.244 2.663-.83.655-1.907.983-3.232.983-1.368 0-2.468-.342-3.297-1.026-.816-.7-1.245-1.602-1.289-2.708zm14.428 3.734c-1.281 0-2.271-.4-2.97-1.201-.698-.8-1.048-1.849-1.048-3.145v-6.856h3.363v5.634c0 1.019.182 1.703.546 2.052.364.35.844.524 1.441.524.772 0 1.303-.218 1.594-.655.291-.436.437-1.063.437-1.878v-5.677h3.363V26h-3.166l-.219-1.223c-.335.451-.808.815-1.419 1.092a4.613 4.613 0 0 1-1.922.415zM137.938 26h-3.385V15.082h3.145l.24 1.878-.371-.393a3.293 3.293 0 0 1 1.31-1.332 3.74 3.74 0 0 1 1.922-.524c1.077 0 1.921.24 2.533.72.626.48 1.077 1.114 1.353 1.9h-.524a3.098 3.098 0 0 1 1.267-1.9c.67-.48 1.47-.72 2.402-.72 1.412 0 2.453.378 3.123 1.135.669.757 1.004 1.762 1.004 3.014V26h-3.275v-6.31c0-.685-.168-1.195-.503-1.53-.32-.334-.749-.502-1.288-.502-.32 0-.626.073-.917.219-.291.13-.532.371-.721.72-.189.335-.284.816-.284 1.442V26h-3.319v-6.31c0-.685-.16-1.187-.48-1.508-.321-.334-.75-.502-1.289-.502-.32 0-.633.073-.939.219-.291.13-.531.37-.72.72-.189.335-.284.808-.284 1.42V26z"/></g><defs><clipPath id="a"><path fill="#fff" d="M.5 0h153v38H.5z"/></clipPath></defs></svg>