<svg xmlns="http://www.w3.org/2000/svg" width="176" height="40" fill="none"><path fill="#fff" d="M43.436 10.75h5.929L46.044 26.5c-.61 2.984-1.773 4.691-3.537 5.901a10.544 10.544 0 0 1-5.89 1.408c-3.922 0-7.684-1.642-8.059-5.629h5.966c.188.938 1.051 1.473 2.364 1.473 1.773 0 2.59-1.07 2.955-2.749l.357-1.735h-.132a5.74 5.74 0 0 1-4.118 1.876c-3.452 0-6.191-2.749-6.135-6.773.075-4.69 3.133-10.019 8.265-10.019A5.103 5.103 0 0 1 42.9 12.9h.104l.431-2.148zm-5.094 11.895c2.28 0 3.546-2.626 3.584-4.887 0-1.51-.591-3.058-2.336-3.058-2.383 0-3.593 2.655-3.63 4.934 0 1.539.59 3.011 2.335 3.011m66.605.507c0 1.004-.864 1.407-1.999 1.407-1.876 0-2.504-.938-2.514-2.251h-5.9c-.103 4.896 4.268 6.107 8.152 6.107 4.962 0 8.18-2.149 8.246-6.436 0-3.424-2.918-4.465-5.788-5.131-2.205-.506-3.171-.872-3.162-1.707.01-.835.995-1.173 1.961-1.173 1.21 0 2.035.432 2.12 1.539h5.732c-.066-4.09-3.753-5.291-7.505-5.291-4.56 0-8.115 2.073-8.17 5.994 0 3.086 2.082 4.221 5.224 5.028 2.017.535 3.621.704 3.603 1.914zm43.836-9.86h-.103a4.202 4.202 0 0 0-4.278-3.076c-2.551 0-4.108 1.266-5.581 3.18h-.103l.544-2.646h-5.967l-3.574 17.092h6.239l1.876-9.221c.431-2.008 1.454-3.415 3.002-3.415 1.548 0 1.754 1.239 1.435 2.749l-2.064 9.887h6.238l1.877-9.221c.431-2.139 1.454-3.415 3.001-3.415 1.548 0 1.755 1.173 1.436 2.749l-2.064 9.887h6.238l2.233-10.16c.938-4.286-.497-7.504-4.615-7.504a6.85 6.85 0 0 0-5.77 3.115zM1.644 27.843H8.09l4.98-23.969H6.635l-4.99 23.968zm19.4-17.598c4.353 0 8.508 2.383 8.443 7.777-.056 5.9-4.071 10.319-10.207 10.319-4.221 0-8.442-2.346-8.367-7.712.103-5.76 4.062-10.384 10.131-10.384zm-1.585 13.912c2.748 0 3.752-3.987 3.752-6.332 0-1.68-.516-3.321-2.326-3.321-2.72 0-3.65 4.221-3.65 6.398 0 1.744.488 3.255 2.261 3.255M15.22 3.874l-.939 4.794H68.4l.938-4.794h-54.12zm43.527 6.37c4.352 0 8.508 2.383 8.443 7.777-.057 5.9-4.081 10.319-10.216 10.319-4.222 0-8.443-2.346-8.359-7.712.132-5.76 4.09-10.384 10.132-10.384zm-1.558 13.912c2.75 0 3.753-3.987 3.753-6.332 0-1.68-.526-3.321-2.336-3.321-2.711 0-3.65 4.221-3.65 6.398 0 1.744.489 3.255 2.271 3.255M71.551 3.874l-.939 4.794h6.23l.938-4.794h-6.23zM66.56 27.842h6.238l3.574-17.091h-6.275l-3.537 17.09zm19.906.573a5.357 5.357 0 0 1-4.99-2.618h-.104l-1.876 8.65h-6.313l5.066-23.697h5.928l-.469 2.28a6.915 6.915 0 0 1 5.338-2.814c3.752 0 5.957 3.217 5.891 7.401-.084 5.263-2.814 10.798-8.508 10.798h.037zm-.244-13.359c-2.41 0-3.893 3.087-3.93 5.46 0 1.651.581 3.49 2.56 3.49 2.58 0 3.64-3.415 3.668-5.695 0-1.547-.45-3.255-2.298-3.255zm36.07 10.094h.103l-.544 2.711h5.928l3.575-17.092h-6.229l-1.989 9.55c-.403 1.98-1.623 3.02-3.161 3.02-1.539 0-1.877-1.444-1.567-2.954l2.017-9.616h-6.229l-2.205 10.554c-.938 4.596 1.201 7.073 4.785 7.073a6.397 6.397 0 0 0 5.516-3.265v.02zm33.461 9.381.938-4.794H82.714l-.938 4.794h73.977z"/><path fill="#fff" d="M162.46 15.44a.466.466 0 0 1-.41-.323.47.47 0 0 1-.021-.183 5.961 5.961 0 0 0-1.568-4.61 5.958 5.958 0 0 0-4.483-1.9.468.468 0 0 1 0-.938c.225.014.451.014.676 0A7.203 7.203 0 0 0 163.07.919a.471.471 0 0 1 .469-.431.467.467 0 0 1 .432.506 5.967 5.967 0 0 0 1.564 4.607 5.968 5.968 0 0 0 4.477 1.904.47.47 0 0 1 .332.8.47.47 0 0 1-.332.138 7.233 7.233 0 0 0-7.082 6.566.471.471 0 0 1-.47.432z"/></svg>